<?xml version="1.0" encoding="iso-8859-1"?>
<!-- Generator: Adobe Illustrator 19.0.0, SVG Export Plug-In . SVG Version: 6.00 Build 0)  -->
<svg version="1.1" id="Capa_1" xmlns="http://www.w3.org/2000/svg" xmlns:xlink="http://www.w3.org/1999/xlink" x="0px" y="0px"
	 viewBox="0 0 469.333 469.333" style="enable-background:new 0 0 469.333 469.333;" xml:space="preserve">
<g>
	<g>
		<g>
			<rect x="228.267" y="117.333" width="241.067" height="42.667"/>
			<rect x="0" y="117.333" width="70.4" height="42.667"/>
			<rect x="398.933" y="309.333" width="70.4" height="42.667"/>
			<rect x="0" y="309.333" width="241.067" height="42.667"/>
		</g>
	</g>
</g>
<g>
	<g>
		<path d="M149.333,53.333C102.4,53.333,64,91.733,64,138.667C64,185.6,102.4,224,149.333,224c46.933,0,85.333-38.4,85.333-85.333
			C234.667,91.733,196.267,53.333,149.333,53.333z M149.333,185.6c-25.6,0-46.933-21.333-46.933-46.933
			c0-25.6,21.333-46.933,46.933-46.933c25.6,0,46.933,21.333,46.933,46.933C196.267,164.267,174.933,185.6,149.333,185.6z"/>
	</g>
</g>
<g>
	<g>
		<path d="M320,245.333c-46.933,0-85.333,38.4-85.333,85.333S273.067,416,320,416s85.333-38.4,85.333-85.333
			S366.933,245.333,320,245.333z M320,377.6c-25.6,0-46.933-21.333-46.933-46.933S294.4,283.733,320,283.733
			c25.6,0,46.933,21.333,46.933,46.933S345.6,377.6,320,377.6z"/>
	</g>
</g>
<g>
</g>
<g>
</g>
<g>
</g>
<g>
</g>
<g>
</g>
<g>
</g>
<g>
</g>
<g>
</g>
<g>
</g>
<g>
</g>
<g>
</g>
<g>
</g>
<g>
</g>
<g>
</g>
<g>
</g>
</svg>
